G04 #@! TF.GenerationSoftware,KiCad,Pcbnew,10.0.1*
G04 #@! TF.CreationDate,2026-05-02T18:21:01+09:00*
G04 #@! TF.ProjectId,switch_plate_with_trackball,73776974-6368-45f7-906c-6174655f7769,rev?*
G04 #@! TF.SameCoordinates,Original*
G04 #@! TF.FileFunction,Profile,NP*
%FSLAX46Y46*%
G04 Gerber Fmt 4.6, Leading zero omitted, Abs format (unit mm)*
G04 Created by KiCad (PCBNEW 10.0.1) date 2026-05-02 18:21:01*
%MOMM*%
%LPD*%
G01*
G04 APERTURE LIST*
G04 #@! TA.AperFunction,Profile*
%ADD10C,0.050000*%
G04 #@! TD*
G04 #@! TA.AperFunction,Profile*
%ADD11C,0.150000*%
G04 #@! TD*
G04 APERTURE END LIST*
D10*
X40800000Y-55500002D02*
G75*
G02*
X41200000Y-55100000I400000J2D01*
G01*
X40800000Y-111199997D02*
X40800000Y-55500002D01*
X41200002Y-111599997D02*
G75*
G02*
X40800003Y-111199997I-2J399997D01*
G01*
X44699998Y-55100000D02*
X41199999Y-55100002D01*
X44700000Y-111599999D02*
G75*
G02*
X45100001Y-111999999I0J-400001D01*
G01*
X44699998Y-111600002D02*
X41199999Y-111600000D01*
X45099998Y-45500001D02*
X45099997Y-54700001D01*
X45099998Y-45500001D02*
G75*
G02*
X45499998Y-45099998I400002J1D01*
G01*
X45099997Y-54700000D02*
G75*
G02*
X44699997Y-55099997I-399997J0D01*
G01*
X45100000Y-121200000D02*
X45099997Y-112000001D01*
X45499999Y-121600000D02*
G75*
G02*
X45100000Y-121200000I1J400000D01*
G01*
X45500001Y-121599999D02*
X273599999Y-121599998D01*
X160975000Y-107568700D02*
X176199800Y-107568700D01*
X176199800Y-116268700D01*
X160975000Y-116268700D01*
X160975000Y-107568700D01*
X163050000Y-104900000D02*
G75*
G02*
X161050000Y-104900000I-1000000J0D01*
G01*
X161050000Y-104900000D02*
G75*
G02*
X163050000Y-104900000I1000000J0D01*
G01*
X163050000Y-118925000D02*
G75*
G02*
X161050000Y-118925000I-1000000J0D01*
G01*
X161050000Y-118925000D02*
G75*
G02*
X163050000Y-118925000I1000000J0D01*
G01*
X177075000Y-104900000D02*
G75*
G02*
X175075000Y-104900000I-1000000J0D01*
G01*
X175075000Y-104900000D02*
G75*
G02*
X177075000Y-104900000I1000000J0D01*
G01*
X177075000Y-118925000D02*
G75*
G02*
X175075000Y-118925000I-1000000J0D01*
G01*
X175075000Y-118925000D02*
G75*
G02*
X177075000Y-118925000I1000000J0D01*
G01*
X273597819Y-45100006D02*
X45500001Y-45100002D01*
X273600000Y-45100000D02*
G75*
G02*
X274000000Y-45500000I0J-400000D01*
G01*
X274000000Y-45500000D02*
X274000001Y-54700000D01*
X273999998Y-111999998D02*
G75*
G02*
X274399998Y-111599998I400002J-2D01*
G01*
X273999999Y-121199999D02*
G75*
G02*
X273599999Y-121599999I-399999J-1D01*
G01*
X273999998Y-121199999D02*
X274000001Y-112000000D01*
X274400001Y-55099999D02*
G75*
G02*
X274000001Y-54699999I-1J399999D01*
G01*
X274400000Y-55099999D02*
X277899999Y-55100001D01*
X274400000Y-111600001D02*
X277899999Y-111599999D01*
X277899998Y-55100001D02*
G75*
G02*
X278299999Y-55500001I2J-399999D01*
G01*
X278299996Y-111199996D02*
G75*
G02*
X277899996Y-111599996I-399996J-4D01*
G01*
X278299998Y-111199996D02*
X278299998Y-55500001D01*
D11*
X142968800Y-104868700D02*
X157068800Y-104868700D01*
X142968800Y-118968700D02*
X142968800Y-104868700D01*
X157068800Y-104868700D02*
X157068800Y-118968700D01*
X157068800Y-118968700D02*
X142968800Y-118968700D01*
X162018800Y-66768700D02*
X176118800Y-66768700D01*
X162018800Y-80868700D02*
X162018800Y-66768700D01*
X176118800Y-66768700D02*
X176118800Y-80868700D01*
X176118800Y-80868700D02*
X162018800Y-80868700D01*
X257268800Y-47718700D02*
X271368800Y-47718700D01*
X257268800Y-61818700D02*
X257268800Y-47718700D01*
X271368800Y-47718700D02*
X271368800Y-61818700D01*
X271368800Y-61818700D02*
X257268800Y-61818700D01*
X104868800Y-85818700D02*
X118968800Y-85818700D01*
X104868800Y-99918700D02*
X104868800Y-85818700D01*
X118968800Y-85818700D02*
X118968800Y-99918700D01*
X118968800Y-99918700D02*
X104868800Y-99918700D01*
X47718800Y-66768700D02*
X61818800Y-66768700D01*
X47718800Y-80868700D02*
X47718800Y-66768700D01*
X61818800Y-66768700D02*
X61818800Y-80868700D01*
X61818800Y-80868700D02*
X47718800Y-80868700D01*
X104868800Y-104868700D02*
X118968800Y-104868700D01*
X104868800Y-118968700D02*
X104868800Y-104868700D01*
X118968800Y-104868700D02*
X118968800Y-118968700D01*
X118968800Y-118968700D02*
X104868800Y-118968700D01*
X66768800Y-66768700D02*
X80868800Y-66768700D01*
X66768800Y-80868700D02*
X66768800Y-66768700D01*
X80868800Y-66768700D02*
X80868800Y-80868700D01*
X80868800Y-80868700D02*
X66768800Y-80868700D01*
X200118800Y-66768700D02*
X214218800Y-66768700D01*
X200118800Y-80868700D02*
X200118800Y-66768700D01*
X214218800Y-66768700D02*
X214218800Y-80868700D01*
X214218800Y-80868700D02*
X200118800Y-80868700D01*
X162018800Y-47718700D02*
X176118800Y-47718700D01*
X162018800Y-61818700D02*
X162018800Y-47718700D01*
X176118800Y-47718700D02*
X176118800Y-61818700D01*
X176118800Y-61818700D02*
X162018800Y-61818700D01*
X123918800Y-104868700D02*
X138018800Y-104868700D01*
X123918800Y-118968700D02*
X123918800Y-104868700D01*
X138018800Y-104868700D02*
X138018800Y-118968700D01*
X138018800Y-118968700D02*
X123918800Y-118968700D01*
X181068800Y-85818700D02*
X195168800Y-85818700D01*
X181068800Y-99918700D02*
X181068800Y-85818700D01*
X195168800Y-85818700D02*
X195168800Y-99918700D01*
X195168800Y-99918700D02*
X181068800Y-99918700D01*
X219168800Y-47718700D02*
X233268800Y-47718700D01*
X219168800Y-61818700D02*
X219168800Y-47718700D01*
X233268800Y-47718700D02*
X233268800Y-61818700D01*
X233268800Y-61818700D02*
X219168800Y-61818700D01*
X257268800Y-104868700D02*
X271368800Y-104868700D01*
X257268800Y-118968700D02*
X257268800Y-104868700D01*
X271368800Y-104868700D02*
X271368800Y-118968700D01*
X271368800Y-118968700D02*
X257268800Y-118968700D01*
X142968800Y-85818700D02*
X157068800Y-85818700D01*
X142968800Y-99918700D02*
X142968800Y-85818700D01*
X157068800Y-85818700D02*
X157068800Y-99918700D01*
X157068800Y-99918700D02*
X142968800Y-99918700D01*
X85818800Y-104868700D02*
X99918800Y-104868700D01*
X85818800Y-118968700D02*
X85818800Y-104868700D01*
X99918800Y-104868700D02*
X99918800Y-118968700D01*
X99918800Y-118968700D02*
X85818800Y-118968700D01*
X47718800Y-47718700D02*
X61818800Y-47718700D01*
X47718800Y-61818700D02*
X47718800Y-47718700D01*
X61818800Y-47718700D02*
X61818800Y-61818700D01*
X61818800Y-61818700D02*
X47718800Y-61818700D01*
X181068800Y-47718700D02*
X195168800Y-47718700D01*
X181068800Y-61818700D02*
X181068800Y-47718700D01*
X195168800Y-47718700D02*
X195168800Y-61818700D01*
X195168800Y-61818700D02*
X181068800Y-61818700D01*
X257268800Y-66768700D02*
X271368800Y-66768700D01*
X257268800Y-80868700D02*
X257268800Y-66768700D01*
X271368800Y-66768700D02*
X271368800Y-80868700D01*
X271368800Y-80868700D02*
X257268800Y-80868700D01*
X47718800Y-85818700D02*
X61818800Y-85818700D01*
X47718800Y-99918700D02*
X47718800Y-85818700D01*
X61818800Y-85818700D02*
X61818800Y-99918700D01*
X61818800Y-99918700D02*
X47718800Y-99918700D01*
X238218800Y-104868700D02*
X252318800Y-104868700D01*
X238218800Y-118968700D02*
X238218800Y-104868700D01*
X252318800Y-104868700D02*
X252318800Y-118968700D01*
X252318800Y-118968700D02*
X238218800Y-118968700D01*
X123918800Y-66768700D02*
X138018800Y-66768700D01*
X123918800Y-80868700D02*
X123918800Y-66768700D01*
X138018800Y-66768700D02*
X138018800Y-80868700D01*
X138018800Y-80868700D02*
X123918800Y-80868700D01*
X142968800Y-66768700D02*
X157068800Y-66768700D01*
X142968800Y-80868700D02*
X142968800Y-66768700D01*
X157068800Y-66768700D02*
X157068800Y-80868700D01*
X157068800Y-80868700D02*
X142968800Y-80868700D01*
X85818800Y-66768700D02*
X99918800Y-66768700D01*
X85818800Y-80868700D02*
X85818800Y-66768700D01*
X99918800Y-66768700D02*
X99918800Y-80868700D01*
X99918800Y-80868700D02*
X85818800Y-80868700D01*
X104868800Y-47718700D02*
X118968800Y-47718700D01*
X104868800Y-61818700D02*
X104868800Y-47718700D01*
X118968800Y-47718700D02*
X118968800Y-61818700D01*
X118968800Y-61818700D02*
X104868800Y-61818700D01*
X200118800Y-85818700D02*
X214218800Y-85818700D01*
X200118800Y-99918700D02*
X200118800Y-85818700D01*
X214218800Y-85818700D02*
X214218800Y-99918700D01*
X214218800Y-99918700D02*
X200118800Y-99918700D01*
X219168800Y-104868700D02*
X233268800Y-104868700D01*
X219168800Y-118968700D02*
X219168800Y-104868700D01*
X233268800Y-104868700D02*
X233268800Y-118968700D01*
X233268800Y-118968700D02*
X219168800Y-118968700D01*
X219168800Y-66768700D02*
X233268800Y-66768700D01*
X219168800Y-80868700D02*
X219168800Y-66768700D01*
X233268800Y-66768700D02*
X233268800Y-80868700D01*
X233268800Y-80868700D02*
X219168800Y-80868700D01*
X200118800Y-47718700D02*
X214218800Y-47718700D01*
X200118800Y-61818700D02*
X200118800Y-47718700D01*
X214218800Y-47718700D02*
X214218800Y-61818700D01*
X214218800Y-61818700D02*
X200118800Y-61818700D01*
X47718800Y-104868700D02*
X61818800Y-104868700D01*
X47718800Y-118968700D02*
X47718800Y-104868700D01*
X61818800Y-104868700D02*
X61818800Y-118968700D01*
X61818800Y-118968700D02*
X47718800Y-118968700D01*
X66768800Y-47718700D02*
X80868800Y-47718700D01*
X66768800Y-61818700D02*
X66768800Y-47718700D01*
X80868800Y-47718700D02*
X80868800Y-61818700D01*
X80868800Y-61818700D02*
X66768800Y-61818700D01*
X104868800Y-66768700D02*
X118968800Y-66768700D01*
X104868800Y-80868700D02*
X104868800Y-66768700D01*
X118968800Y-66768700D02*
X118968800Y-80868700D01*
X118968800Y-80868700D02*
X104868800Y-80868700D01*
X85818800Y-85818700D02*
X99918800Y-85818700D01*
X85818800Y-99918700D02*
X85818800Y-85818700D01*
X99918800Y-85818700D02*
X99918800Y-99918700D01*
X99918800Y-99918700D02*
X85818800Y-99918700D01*
X238218800Y-66768700D02*
X252318800Y-66768700D01*
X238218800Y-80868700D02*
X238218800Y-66768700D01*
X252318800Y-66768700D02*
X252318800Y-80868700D01*
X252318800Y-80868700D02*
X238218800Y-80868700D01*
X219168800Y-85818700D02*
X233268800Y-85818700D01*
X219168800Y-99918700D02*
X219168800Y-85818700D01*
X233268800Y-85818700D02*
X233268800Y-99918700D01*
X233268800Y-99918700D02*
X219168800Y-99918700D01*
X257268800Y-85818700D02*
X271368800Y-85818700D01*
X257268800Y-99918700D02*
X257268800Y-85818700D01*
X271368800Y-85818700D02*
X271368800Y-99918700D01*
X271368800Y-99918700D02*
X257268800Y-99918700D01*
X66768800Y-85818700D02*
X80868800Y-85818700D01*
X66768800Y-99918700D02*
X66768800Y-85818700D01*
X80868800Y-85818700D02*
X80868800Y-99918700D01*
X80868800Y-99918700D02*
X66768800Y-99918700D01*
X181068800Y-66768700D02*
X195168800Y-66768700D01*
X181068800Y-80868700D02*
X181068800Y-66768700D01*
X195168800Y-66768700D02*
X195168800Y-80868700D01*
X195168800Y-80868700D02*
X181068800Y-80868700D01*
X66768800Y-104868700D02*
X80868800Y-104868700D01*
X66768800Y-118968700D02*
X66768800Y-104868700D01*
X80868800Y-104868700D02*
X80868800Y-118968700D01*
X80868800Y-118968700D02*
X66768800Y-118968700D01*
X142968800Y-47718700D02*
X157068800Y-47718700D01*
X142968800Y-61818700D02*
X142968800Y-47718700D01*
X157068800Y-47718700D02*
X157068800Y-61818700D01*
X157068800Y-61818700D02*
X142968800Y-61818700D01*
X123918800Y-47718700D02*
X138018800Y-47718700D01*
X123918800Y-61818700D02*
X123918800Y-47718700D01*
X138018800Y-47718700D02*
X138018800Y-61818700D01*
X138018800Y-61818700D02*
X123918800Y-61818700D01*
X238218800Y-47718700D02*
X252318800Y-47718700D01*
X238218800Y-61818700D02*
X238218800Y-47718700D01*
X252318800Y-47718700D02*
X252318800Y-61818700D01*
X252318800Y-61818700D02*
X238218800Y-61818700D01*
X162018800Y-85818700D02*
X176118800Y-85818700D01*
X162018800Y-99918700D02*
X162018800Y-85818700D01*
X176118800Y-85818700D02*
X176118800Y-99918700D01*
X176118800Y-99918700D02*
X162018800Y-99918700D01*
X181068800Y-104868700D02*
X195168800Y-104868700D01*
X181068800Y-118968700D02*
X181068800Y-104868700D01*
X195168800Y-104868700D02*
X195168800Y-118968700D01*
X195168800Y-118968700D02*
X181068800Y-118968700D01*
X123918800Y-85818700D02*
X138018800Y-85818700D01*
X123918800Y-99918700D02*
X123918800Y-85818700D01*
X138018800Y-85818700D02*
X138018800Y-99918700D01*
X138018800Y-99918700D02*
X123918800Y-99918700D01*
X85818800Y-47718700D02*
X99918800Y-47718700D01*
X85818800Y-61818700D02*
X85818800Y-47718700D01*
X99918800Y-47718700D02*
X99918800Y-61818700D01*
X99918800Y-61818700D02*
X85818800Y-61818700D01*
X200118800Y-104868700D02*
X214218800Y-104868700D01*
X200118800Y-118968700D02*
X200118800Y-104868700D01*
X214218800Y-104868700D02*
X214218800Y-118968700D01*
X214218800Y-118968700D02*
X200118800Y-118968700D01*
X238218800Y-85818700D02*
X252318800Y-85818700D01*
X238218800Y-99918700D02*
X238218800Y-85818700D01*
X252318800Y-85818700D02*
X252318800Y-99918700D01*
X252318800Y-99918700D02*
X238218800Y-99918700D01*
M02*
