G04 #@! TF.GenerationSoftware,KiCad,Pcbnew,10.0.1*
G04 #@! TF.CreationDate,2026-04-26T00:00:44+09:00*
G04 #@! TF.ProjectId,switch_plate_with_trackball,73776974-6368-45f7-906c-6174655f7769,rev?*
G04 #@! TF.SameCoordinates,Original*
G04 #@! TF.FileFunction,Soldermask,Top*
G04 #@! TF.FilePolarity,Negative*
%FSLAX46Y46*%
G04 Gerber Fmt 4.6, Leading zero omitted, Abs format (unit mm)*
G04 Created by KiCad (PCBNEW 10.0.1) date 2026-04-26 00:00:44*
%MOMM*%
%LPD*%
G01*
G04 APERTURE LIST*
G04 APERTURE END LIST*
G36*
X273595974Y-45100005D02*
G01*
X273599665Y-45100060D01*
X273643585Y-45101368D01*
X273677698Y-45107216D01*
X273762710Y-45134429D01*
X273797462Y-45151970D01*
X273868038Y-45202894D01*
X273895641Y-45230346D01*
X273946947Y-45300640D01*
X273964677Y-45335298D01*
X273992353Y-45420163D01*
X273998387Y-45454241D01*
X273999923Y-45497814D01*
X274000000Y-45502182D01*
X274000000Y-54699997D01*
X274002194Y-54763007D01*
X274041135Y-54882853D01*
X274115202Y-54984797D01*
X274217147Y-55058864D01*
X274336993Y-55097805D01*
X274400003Y-55099999D01*
X277897840Y-55100000D01*
X277902155Y-55100075D01*
X277945583Y-55101587D01*
X277979586Y-55107581D01*
X278064173Y-55135065D01*
X278098740Y-55152678D01*
X278168908Y-55203658D01*
X278196341Y-55231091D01*
X278247321Y-55301259D01*
X278264934Y-55335825D01*
X278292418Y-55420411D01*
X278298412Y-55454418D01*
X278299923Y-55497844D01*
X278299998Y-55502156D01*
X278299998Y-111197837D01*
X278299923Y-111202151D01*
X278298411Y-111245581D01*
X278292417Y-111279584D01*
X278264934Y-111364170D01*
X278247321Y-111398739D01*
X278196340Y-111468908D01*
X278168908Y-111496340D01*
X278098739Y-111547321D01*
X278064170Y-111564934D01*
X277979586Y-111592416D01*
X277945581Y-111598410D01*
X277902155Y-111599921D01*
X277897843Y-111599996D01*
X274399990Y-111600000D01*
X274337041Y-111602462D01*
X274337040Y-111602462D01*
X274217271Y-111641377D01*
X274217267Y-111641379D01*
X274115394Y-111715395D01*
X274041379Y-111817268D01*
X274041378Y-111817271D01*
X274002463Y-111937035D01*
X273999998Y-111999998D01*
X273999998Y-121197840D01*
X273999923Y-121202155D01*
X273998411Y-121245583D01*
X273992417Y-121279587D01*
X273964933Y-121364173D01*
X273947320Y-121398739D01*
X273896340Y-121468907D01*
X273868907Y-121496340D01*
X273798739Y-121547320D01*
X273764172Y-121564933D01*
X273679585Y-121592417D01*
X273645584Y-121598411D01*
X273602155Y-121599924D01*
X273597838Y-121599999D01*
X45502159Y-121599999D01*
X45497844Y-121599924D01*
X45454416Y-121598412D01*
X45420413Y-121592418D01*
X45335826Y-121564934D01*
X45301258Y-121547321D01*
X45231092Y-121496342D01*
X45203661Y-121468911D01*
X45152678Y-121398741D01*
X45135064Y-121364171D01*
X45107581Y-121279584D01*
X45101587Y-121245587D01*
X45100073Y-121202155D01*
X45099998Y-121197835D01*
X45099998Y-118968700D01*
X47718800Y-118968700D01*
X61818800Y-118968700D01*
X66768800Y-118968700D01*
X80868800Y-118968700D01*
X85818800Y-118968700D01*
X99918800Y-118968700D01*
X104868800Y-118968700D01*
X118968800Y-118968700D01*
X123918800Y-118968700D01*
X138018800Y-118968700D01*
X142968800Y-118968700D01*
X157068800Y-118968700D01*
X157068800Y-118925000D01*
X161047422Y-118925000D01*
X161067943Y-119126819D01*
X161128669Y-119320364D01*
X161128676Y-119320379D01*
X161227118Y-119497738D01*
X161227121Y-119497743D01*
X161359255Y-119651660D01*
X161359256Y-119651662D01*
X161519668Y-119775829D01*
X161701798Y-119865169D01*
X161898182Y-119916016D01*
X161898179Y-119916016D01*
X162100780Y-119926291D01*
X162100782Y-119926291D01*
X162301294Y-119895573D01*
X162301300Y-119895572D01*
X162491522Y-119825122D01*
X162491529Y-119825119D01*
X162663685Y-119717813D01*
X162810715Y-119578051D01*
X162926600Y-119411554D01*
X163006600Y-119225133D01*
X163047435Y-119026424D01*
X163050000Y-118925014D01*
X163050000Y-118925000D01*
X175072422Y-118925000D01*
X175092943Y-119126819D01*
X175153669Y-119320364D01*
X175153676Y-119320379D01*
X175252118Y-119497738D01*
X175252121Y-119497743D01*
X175384255Y-119651660D01*
X175384256Y-119651662D01*
X175544668Y-119775829D01*
X175726798Y-119865169D01*
X175923182Y-119916016D01*
X175923179Y-119916016D01*
X176125780Y-119926291D01*
X176125782Y-119926291D01*
X176326294Y-119895573D01*
X176326300Y-119895572D01*
X176516522Y-119825122D01*
X176516529Y-119825119D01*
X176688685Y-119717813D01*
X176835715Y-119578051D01*
X176951600Y-119411554D01*
X177031600Y-119225133D01*
X177072435Y-119026424D01*
X177073895Y-118968700D01*
X181068800Y-118968700D01*
X195168800Y-118968700D01*
X200118800Y-118968700D01*
X214218800Y-118968700D01*
X219168800Y-118968700D01*
X233268800Y-118968700D01*
X238218800Y-118968700D01*
X252318800Y-118968700D01*
X257268800Y-118968700D01*
X271368800Y-118968700D01*
X271368800Y-104868700D01*
X257268800Y-104868700D01*
X257268800Y-118968700D01*
X252318800Y-118968700D01*
X252318800Y-104868700D01*
X238218800Y-104868700D01*
X238218800Y-118968700D01*
X233268800Y-118968700D01*
X233268800Y-104868700D01*
X219168800Y-104868700D01*
X219168800Y-118968700D01*
X214218800Y-118968700D01*
X214218800Y-104868700D01*
X200118800Y-104868700D01*
X200118800Y-118968700D01*
X195168800Y-118968700D01*
X195168800Y-104868700D01*
X181068800Y-104868700D01*
X181068800Y-118968700D01*
X177073895Y-118968700D01*
X177075000Y-118925014D01*
X177075000Y-118924985D01*
X177072435Y-118823575D01*
X177031600Y-118624866D01*
X176951600Y-118438445D01*
X176835715Y-118271948D01*
X176688685Y-118132186D01*
X176516529Y-118024880D01*
X176516522Y-118024877D01*
X176326300Y-117954427D01*
X176326294Y-117954426D01*
X176125781Y-117923708D01*
X175923181Y-117933983D01*
X175726798Y-117984830D01*
X175544668Y-118074170D01*
X175384256Y-118198337D01*
X175384255Y-118198339D01*
X175252121Y-118352256D01*
X175252118Y-118352261D01*
X175153676Y-118529620D01*
X175153669Y-118529635D01*
X175092943Y-118723180D01*
X175072422Y-118925000D01*
X163050000Y-118925000D01*
X163050000Y-118924985D01*
X163047435Y-118823575D01*
X163006600Y-118624866D01*
X162926600Y-118438445D01*
X162810715Y-118271948D01*
X162663685Y-118132186D01*
X162491529Y-118024880D01*
X162491522Y-118024877D01*
X162301300Y-117954427D01*
X162301294Y-117954426D01*
X162100781Y-117923708D01*
X161898181Y-117933983D01*
X161701798Y-117984830D01*
X161519668Y-118074170D01*
X161359256Y-118198337D01*
X161359255Y-118198339D01*
X161227121Y-118352256D01*
X161227118Y-118352261D01*
X161128676Y-118529620D01*
X161128669Y-118529635D01*
X161067943Y-118723180D01*
X161047422Y-118925000D01*
X157068800Y-118925000D01*
X157068800Y-116268700D01*
X160975000Y-116268700D01*
X176199800Y-116268700D01*
X176199800Y-107568700D01*
X160975000Y-107568700D01*
X160975000Y-116268700D01*
X157068800Y-116268700D01*
X157068800Y-104900000D01*
X161047422Y-104900000D01*
X161067943Y-105101819D01*
X161128669Y-105295364D01*
X161128676Y-105295379D01*
X161227118Y-105472738D01*
X161227121Y-105472743D01*
X161359255Y-105626660D01*
X161359256Y-105626662D01*
X161519668Y-105750829D01*
X161701798Y-105840169D01*
X161898182Y-105891016D01*
X161898179Y-105891016D01*
X162100780Y-105901291D01*
X162100782Y-105901291D01*
X162301294Y-105870573D01*
X162301300Y-105870572D01*
X162491522Y-105800122D01*
X162491529Y-105800119D01*
X162663685Y-105692813D01*
X162810715Y-105553051D01*
X162926600Y-105386554D01*
X163006600Y-105200133D01*
X163047435Y-105001424D01*
X163050000Y-104900014D01*
X163050000Y-104900000D01*
X175072422Y-104900000D01*
X175092943Y-105101819D01*
X175153669Y-105295364D01*
X175153676Y-105295379D01*
X175252118Y-105472738D01*
X175252121Y-105472743D01*
X175384255Y-105626660D01*
X175384256Y-105626662D01*
X175544668Y-105750829D01*
X175726798Y-105840169D01*
X175923182Y-105891016D01*
X175923179Y-105891016D01*
X176125780Y-105901291D01*
X176125782Y-105901291D01*
X176326294Y-105870573D01*
X176326300Y-105870572D01*
X176516522Y-105800122D01*
X176516529Y-105800119D01*
X176688685Y-105692813D01*
X176835715Y-105553051D01*
X176951600Y-105386554D01*
X177031600Y-105200133D01*
X177072435Y-105001424D01*
X177075000Y-104900014D01*
X177075000Y-104899985D01*
X177072435Y-104798575D01*
X177031600Y-104599866D01*
X176951600Y-104413445D01*
X176835715Y-104246948D01*
X176688685Y-104107186D01*
X176516529Y-103999880D01*
X176516522Y-103999877D01*
X176326300Y-103929427D01*
X176326294Y-103929426D01*
X176125781Y-103898708D01*
X175923181Y-103908983D01*
X175726798Y-103959830D01*
X175544668Y-104049170D01*
X175384256Y-104173337D01*
X175384255Y-104173339D01*
X175252121Y-104327256D01*
X175252118Y-104327261D01*
X175153676Y-104504620D01*
X175153669Y-104504635D01*
X175092943Y-104698180D01*
X175072422Y-104900000D01*
X163050000Y-104900000D01*
X163050000Y-104899985D01*
X163047435Y-104798575D01*
X163006600Y-104599866D01*
X162926600Y-104413445D01*
X162810715Y-104246948D01*
X162663685Y-104107186D01*
X162491529Y-103999880D01*
X162491522Y-103999877D01*
X162301300Y-103929427D01*
X162301294Y-103929426D01*
X162100781Y-103898708D01*
X161898181Y-103908983D01*
X161701798Y-103959830D01*
X161519668Y-104049170D01*
X161359256Y-104173337D01*
X161359255Y-104173339D01*
X161227121Y-104327256D01*
X161227118Y-104327261D01*
X161128676Y-104504620D01*
X161128669Y-104504635D01*
X161067943Y-104698180D01*
X161047422Y-104900000D01*
X157068800Y-104900000D01*
X157068800Y-104868700D01*
X142968800Y-104868700D01*
X142968800Y-118968700D01*
X138018800Y-118968700D01*
X138018800Y-104868700D01*
X123918800Y-104868700D01*
X123918800Y-118968700D01*
X118968800Y-118968700D01*
X118968800Y-104868700D01*
X104868800Y-104868700D01*
X104868800Y-118968700D01*
X99918800Y-118968700D01*
X99918800Y-104868700D01*
X85818800Y-104868700D01*
X85818800Y-118968700D01*
X80868800Y-118968700D01*
X80868800Y-104868700D01*
X66768800Y-104868700D01*
X66768800Y-118968700D01*
X61818800Y-118968700D01*
X61818800Y-104868700D01*
X47718800Y-104868700D01*
X47718800Y-118968700D01*
X45099998Y-118968700D01*
X45099997Y-112000003D01*
X45097803Y-111936994D01*
X45058862Y-111817148D01*
X44984794Y-111715202D01*
X44984795Y-111715202D01*
X44882853Y-111641137D01*
X44882848Y-111641135D01*
X44763008Y-111602196D01*
X44699989Y-111599999D01*
X41202157Y-111599999D01*
X41197845Y-111599924D01*
X41154418Y-111598413D01*
X41120411Y-111592419D01*
X41035823Y-111564934D01*
X41001257Y-111547321D01*
X40931089Y-111496341D01*
X40903655Y-111468908D01*
X40852675Y-111398739D01*
X40835063Y-111364171D01*
X40807581Y-111279587D01*
X40801587Y-111245582D01*
X40800076Y-111202156D01*
X40800001Y-111197844D01*
X40800001Y-99918700D01*
X47718800Y-99918700D01*
X61818800Y-99918700D01*
X66768800Y-99918700D01*
X80868800Y-99918700D01*
X85818800Y-99918700D01*
X99918800Y-99918700D01*
X104868800Y-99918700D01*
X118968800Y-99918700D01*
X123918800Y-99918700D01*
X138018800Y-99918700D01*
X142968800Y-99918700D01*
X157068800Y-99918700D01*
X162018800Y-99918700D01*
X176118800Y-99918700D01*
X181068800Y-99918700D01*
X195168800Y-99918700D01*
X200118800Y-99918700D01*
X214218800Y-99918700D01*
X219168800Y-99918700D01*
X233268800Y-99918700D01*
X238218800Y-99918700D01*
X252318800Y-99918700D01*
X257268800Y-99918700D01*
X271368800Y-99918700D01*
X271368800Y-85818700D01*
X257268800Y-85818700D01*
X257268800Y-99918700D01*
X252318800Y-99918700D01*
X252318800Y-85818700D01*
X238218800Y-85818700D01*
X238218800Y-99918700D01*
X233268800Y-99918700D01*
X233268800Y-85818700D01*
X219168800Y-85818700D01*
X219168800Y-99918700D01*
X214218800Y-99918700D01*
X214218800Y-85818700D01*
X200118800Y-85818700D01*
X200118800Y-99918700D01*
X195168800Y-99918700D01*
X195168800Y-85818700D01*
X181068800Y-85818700D01*
X181068800Y-99918700D01*
X176118800Y-99918700D01*
X176118800Y-85818700D01*
X162018800Y-85818700D01*
X162018800Y-99918700D01*
X157068800Y-99918700D01*
X157068800Y-85818700D01*
X142968800Y-85818700D01*
X142968800Y-99918700D01*
X138018800Y-99918700D01*
X138018800Y-85818700D01*
X123918800Y-85818700D01*
X123918800Y-99918700D01*
X118968800Y-99918700D01*
X118968800Y-85818700D01*
X104868800Y-85818700D01*
X104868800Y-99918700D01*
X99918800Y-99918700D01*
X99918800Y-85818700D01*
X85818800Y-85818700D01*
X85818800Y-99918700D01*
X80868800Y-99918700D01*
X80868800Y-85818700D01*
X66768800Y-85818700D01*
X66768800Y-99918700D01*
X61818800Y-99918700D01*
X61818800Y-85818700D01*
X47718800Y-85818700D01*
X47718800Y-99918700D01*
X40800001Y-99918700D01*
X40800000Y-80868700D01*
X47718800Y-80868700D01*
X61818800Y-80868700D01*
X66768800Y-80868700D01*
X80868800Y-80868700D01*
X85818800Y-80868700D01*
X99918800Y-80868700D01*
X104868800Y-80868700D01*
X118968800Y-80868700D01*
X123918800Y-80868700D01*
X138018800Y-80868700D01*
X142968800Y-80868700D01*
X157068800Y-80868700D01*
X162018800Y-80868700D01*
X176118800Y-80868700D01*
X181068800Y-80868700D01*
X195168800Y-80868700D01*
X200118800Y-80868700D01*
X214218800Y-80868700D01*
X219168800Y-80868700D01*
X233268800Y-80868700D01*
X238218800Y-80868700D01*
X252318800Y-80868700D01*
X257268800Y-80868700D01*
X271368800Y-80868700D01*
X271368800Y-66768700D01*
X257268800Y-66768700D01*
X257268800Y-80868700D01*
X252318800Y-80868700D01*
X252318800Y-66768700D01*
X238218800Y-66768700D01*
X238218800Y-80868700D01*
X233268800Y-80868700D01*
X233268800Y-66768700D01*
X219168800Y-66768700D01*
X219168800Y-80868700D01*
X214218800Y-80868700D01*
X214218800Y-66768700D01*
X200118800Y-66768700D01*
X200118800Y-80868700D01*
X195168800Y-80868700D01*
X195168800Y-66768700D01*
X181068800Y-66768700D01*
X181068800Y-80868700D01*
X176118800Y-80868700D01*
X176118800Y-66768700D01*
X162018800Y-66768700D01*
X162018800Y-80868700D01*
X157068800Y-80868700D01*
X157068800Y-66768700D01*
X142968800Y-66768700D01*
X142968800Y-80868700D01*
X138018800Y-80868700D01*
X138018800Y-66768700D01*
X123918800Y-66768700D01*
X123918800Y-80868700D01*
X118968800Y-80868700D01*
X118968800Y-66768700D01*
X104868800Y-66768700D01*
X104868800Y-80868700D01*
X99918800Y-80868700D01*
X99918800Y-66768700D01*
X85818800Y-66768700D01*
X85818800Y-80868700D01*
X80868800Y-80868700D01*
X80868800Y-66768700D01*
X66768800Y-66768700D01*
X66768800Y-80868700D01*
X61818800Y-80868700D01*
X61818800Y-66768700D01*
X47718800Y-66768700D01*
X47718800Y-80868700D01*
X40800000Y-80868700D01*
X40800000Y-61818700D01*
X47718800Y-61818700D01*
X61818800Y-61818700D01*
X66768800Y-61818700D01*
X80868800Y-61818700D01*
X85818800Y-61818700D01*
X99918800Y-61818700D01*
X104868800Y-61818700D01*
X118968800Y-61818700D01*
X123918800Y-61818700D01*
X138018800Y-61818700D01*
X142968800Y-61818700D01*
X157068800Y-61818700D01*
X162018800Y-61818700D01*
X176118800Y-61818700D01*
X181068800Y-61818700D01*
X195168800Y-61818700D01*
X200118800Y-61818700D01*
X214218800Y-61818700D01*
X219168800Y-61818700D01*
X233268800Y-61818700D01*
X238218800Y-61818700D01*
X252318800Y-61818700D01*
X257268800Y-61818700D01*
X271368800Y-61818700D01*
X271368800Y-47718700D01*
X257268800Y-47718700D01*
X257268800Y-61818700D01*
X252318800Y-61818700D01*
X252318800Y-47718700D01*
X238218800Y-47718700D01*
X238218800Y-61818700D01*
X233268800Y-61818700D01*
X233268800Y-47718700D01*
X219168800Y-47718700D01*
X219168800Y-61818700D01*
X214218800Y-61818700D01*
X214218800Y-47718700D01*
X200118800Y-47718700D01*
X200118800Y-61818700D01*
X195168800Y-61818700D01*
X195168800Y-47718700D01*
X181068800Y-47718700D01*
X181068800Y-61818700D01*
X176118800Y-61818700D01*
X176118800Y-47718700D01*
X162018800Y-47718700D01*
X162018800Y-61818700D01*
X157068800Y-61818700D01*
X157068800Y-47718700D01*
X142968800Y-47718700D01*
X142968800Y-61818700D01*
X138018800Y-61818700D01*
X138018800Y-47718700D01*
X123918800Y-47718700D01*
X123918800Y-61818700D01*
X118968800Y-61818700D01*
X118968800Y-47718700D01*
X104868800Y-47718700D01*
X104868800Y-61818700D01*
X99918800Y-61818700D01*
X99918800Y-47718700D01*
X85818800Y-47718700D01*
X85818800Y-61818700D01*
X80868800Y-61818700D01*
X80868800Y-47718700D01*
X66768800Y-47718700D01*
X66768800Y-61818700D01*
X61818800Y-61818700D01*
X61818800Y-47718700D01*
X47718800Y-47718700D01*
X47718800Y-61818700D01*
X40800000Y-61818700D01*
X40800000Y-55502160D01*
X40800075Y-55497848D01*
X40801586Y-55454419D01*
X40807580Y-55420412D01*
X40835064Y-55335826D01*
X40852676Y-55301261D01*
X40903656Y-55231091D01*
X40931090Y-55203657D01*
X41001257Y-55152678D01*
X41035823Y-55135065D01*
X41120410Y-55107580D01*
X41154420Y-55101586D01*
X41197843Y-55100076D01*
X41202152Y-55100001D01*
X44699995Y-55100000D01*
X44763005Y-55097806D01*
X44882850Y-55058866D01*
X44984799Y-54984796D01*
X45058864Y-54882854D01*
X45058865Y-54882851D01*
X45097806Y-54763006D01*
X45097807Y-54763002D01*
X45099997Y-54700004D01*
X45099997Y-45502416D01*
X45100092Y-45497569D01*
X45101789Y-45454185D01*
X45107763Y-45420714D01*
X45135305Y-45335949D01*
X45152918Y-45301382D01*
X45203847Y-45231284D01*
X45231279Y-45203852D01*
X45301381Y-45152919D01*
X45335948Y-45135305D01*
X45420709Y-45107764D01*
X45454189Y-45101789D01*
X45497568Y-45100095D01*
X45502407Y-45100001D01*
X273595974Y-45100005D01*
G37*
M02*
